<svg version="1.1" id="Layer_1" xmlns="http://www.w3.org/2000/svg" xmlns:xlink="http://www.w3.org/1999/xlink" x="0px" y="0px"
	 width="100%" viewBox="0 0 250 250" enable-background="new 0 0 250 250" xml:space="preserve">
<path fill="#45CD85" opacity="1.000000" stroke="none" 
	d="
M0.999999,151.000000 
	C1.000000,134.645767 1.000000,118.291542 1.323059,101.787430 
	C2.063919,101.140221 2.757950,100.693214 2.859068,100.138191 
	C5.306087,86.706932 10.351667,74.233582 17.210842,62.533623 
	C25.306684,48.724232 35.621170,36.797611 48.308083,26.893780 
	C63.588272,14.965545 80.521408,6.764078 99.547684,2.902601 
	C100.136253,2.783149 100.520500,1.656884 101.000000,1.000000 
	C117.354225,1.000000 133.708450,1.000000 150.212555,1.323056 
	C151.024796,2.084009 151.635284,2.773956 152.357147,2.922467 
	C165.857254,5.699816 178.511963,10.534280 190.344330,17.685244 
	C205.395447,26.781473 218.021439,38.373863 228.309265,52.641018 
	C238.349670,66.565063 245.047012,81.922951 249.043060,98.551453 
	C249.264114,99.471275 250.328262,100.188484 251.000000,101.000000 
	C251.000000,117.354225 251.000000,133.708450 250.676910,150.212585 
	C249.936050,150.859818 249.242035,151.306854 249.140915,151.861893 
	C246.693924,165.293167 241.648285,177.766479 234.789108,189.466431 
	C226.693283,203.275803 216.378769,215.202393 203.691879,225.106232 
	C188.411697,237.034454 171.478577,245.235901 152.452332,249.097397 
	C151.863754,249.216858 151.479507,250.343109 151.000000,251.000000 
	C134.645767,251.000000 118.291542,251.000000 101.787422,250.676956 
	C100.975212,249.916000 100.364754,249.226013 99.642906,249.077515 
	C86.142776,246.300217 73.488052,241.465744 61.655701,234.314774 
	C46.604588,225.218536 33.978580,213.626144 23.690758,199.358978 
	C13.650344,185.434921 6.952990,170.077042 2.956978,153.448517 
	C2.735936,152.528702 1.671739,151.811508 0.999999,151.000000 
M88.786247,85.197105 
	C68.782097,99.497620 59.029911,118.829124 62.524601,143.335968 
	C67.480164,178.087296 100.741035,198.891464 131.594620,192.714005 
	C152.576111,188.513107 167.046127,175.963882 175.578506,156.493256 
	C177.466690,152.184448 176.671951,151.156357 172.019485,151.012115 
	C169.191925,150.924423 166.336700,151.218292 163.534592,150.936310 
	C158.993683,150.479385 156.269333,152.393570 153.769516,156.170380 
	C137.860443,180.206345 104.028557,180.302750 87.696213,156.514862 
	C75.474945,138.714691 81.079842,112.835892 99.571602,101.262825 
	C101.460106,100.080894 104.233040,98.403397 104.404182,96.731529 
	C105.001091,90.900558 104.635124,84.971031 104.635124,77.568138 
	C98.824265,80.339966 94.118317,82.584740 88.786247,85.197105 
M134.934586,101.738319 
	C141.144119,102.962280 147.385391,104.048065 153.550644,105.464691 
	C156.966583,106.249596 162.022034,106.421822 161.416229,111.295532 
	C160.876236,115.639877 155.899628,116.236275 152.490158,115.780045 
	C144.323517,114.687241 136.242569,112.846817 128.199005,110.995461 
	C125.071411,110.275589 122.137451,108.714455 118.013794,107.107201 
	C118.013794,112.739388 117.577362,117.397537 118.204559,121.907776 
	C118.502060,124.047188 120.417236,126.907387 122.320297,127.691299 
	C127.049950,129.639511 132.259277,130.389328 137.131973,132.044357 
	C138.639465,132.556381 140.811996,134.493362 140.748642,135.674316 
	C140.438934,141.448563 143.533249,142.449844 148.232422,142.041153 
	C150.217789,141.868484 152.232758,141.932388 154.229187,142.013596 
	C157.603561,142.150864 159.272842,140.608505 158.988800,137.232834 
	C158.699646,133.796265 160.432190,132.414780 163.504333,131.162567 
	C167.444275,129.556625 171.477264,127.514648 174.603745,124.698608 
	C185.086716,115.256454 182.901596,98.196632 170.347427,91.860046 
	C165.664902,89.496597 160.324158,88.341988 155.188599,86.999443 
	C150.526413,85.780632 145.648315,85.344521 141.046158,83.961754 
	C139.342438,83.449837 138.153549,81.224503 136.729858,79.780586 
	C138.216690,78.595505 139.527710,76.939575 141.220993,76.307297 
	C148.349197,73.645523 155.412415,75.586838 162.326096,77.399307 
	C174.611954,80.620140 174.480484,80.754967 174.063904,67.547546 
	C173.949738,63.928616 172.564087,61.915874 169.048462,61.290657 
	C167.244141,60.969776 165.455978,60.315411 163.652130,60.283382 
	C159.471252,60.209145 157.812241,58.395054 157.777069,54.126690 
	C157.765747,52.752220 155.244431,50.132488 154.105042,50.255035 
	C149.469040,50.753654 144.103897,47.473812 140.246414,52.489624 
	C140.067688,52.722015 140.031067,53.148407 140.081451,53.459648 
	C140.936157,58.739052 137.594162,60.181393 133.378830,61.449562 
	C126.189171,63.612549 120.523079,67.815285 118.188271,75.357124 
	C114.576515,87.023720 120.616768,96.831581 134.934586,101.738319 
z"/>
<path fill="#000000" opacity="1.000000" stroke="none" 
	d="
M100.531342,1.000000 
	C100.520500,1.656884 100.136253,2.783149 99.547684,2.902601 
	C80.521408,6.764078 63.588272,14.965545 48.308083,26.893780 
	C35.621170,36.797611 25.306684,48.724232 17.210842,62.533623 
	C10.351667,74.233582 5.306087,86.706932 2.859068,100.138191 
	C2.757950,100.693214 2.063919,101.140221 1.323059,101.318771 
	C1.000000,67.739731 1.000000,34.479462 1.000000,1.000000 
	C34.020573,1.000000 67.041626,1.000000 100.531342,1.000000 
z"/>
<path fill="#000000" opacity="1.000000" stroke="none" 
	d="
M251.000000,100.531342 
	C250.328262,100.188484 249.264114,99.471275 249.043060,98.551453 
	C245.047012,81.922951 238.349670,66.565063 228.309265,52.641018 
	C218.021439,38.373863 205.395447,26.781473 190.344330,17.685244 
	C178.511963,10.534280 165.857254,5.699816 152.357147,2.922467 
	C151.635284,2.773956 151.024796,2.084009 150.681213,1.323056 
	C184.260269,1.000000 217.520523,1.000000 251.000000,1.000000 
	C251.000000,34.020573 251.000000,67.041626 251.000000,100.531342 
z"/>
<path fill="#000000" opacity="1.000000" stroke="none" 
	d="
M0.999999,151.468658 
	C1.671739,151.811508 2.735936,152.528702 2.956978,153.448517 
	C6.952990,170.077042 13.650344,185.434921 23.690758,199.358978 
	C33.978580,213.626144 46.604588,225.218536 61.655701,234.314774 
	C73.488052,241.465744 86.142776,246.300217 99.642906,249.077515 
	C100.364754,249.226013 100.975212,249.916000 101.318764,250.676956 
	C67.739731,251.000000 34.479465,251.000000 1.000000,251.000000 
	C1.000000,217.979431 1.000000,184.958374 0.999999,151.468658 
z"/>
<path fill="#000000" opacity="1.000000" stroke="none" 
	d="
M151.468658,251.000000 
	C151.479507,250.343109 151.863754,249.216858 152.452332,249.097397 
	C171.478577,245.235901 188.411697,237.034454 203.691879,225.106232 
	C216.378769,215.202393 226.693283,203.275803 234.789108,189.466431 
	C241.648285,177.766479 246.693924,165.293167 249.140915,151.861893 
	C249.242035,151.306854 249.936050,150.859818 250.676910,150.681244 
	C251.000000,184.260269 251.000000,217.520523 251.000000,251.000000 
	C217.979431,251.000000 184.958374,251.000000 151.468658,251.000000 
z"/>
<path fill="#43C57C" opacity="1.000000" stroke="none" 
	d="
M89.099304,85.013306 
	C94.118317,82.584740 98.824265,80.339966 104.635124,77.568138 
	C104.635124,84.971031 105.001091,90.900558 104.404182,96.731529 
	C104.233040,98.403397 101.460106,100.080894 99.571602,101.262825 
	C81.079842,112.835892 75.474945,138.714691 87.696213,156.514862 
	C104.028557,180.302750 137.860443,180.206345 153.769516,156.170380 
	C156.269333,152.393570 158.993683,150.479385 163.534592,150.936310 
	C166.336700,151.218292 169.191925,150.924423 172.019485,151.012115 
	C176.671951,151.156357 177.466690,152.184448 175.578506,156.493256 
	C167.046127,175.963882 152.576111,188.513107 131.594620,192.714005 
	C100.741035,198.891464 67.480164,178.087296 62.524601,143.335968 
	C59.029911,118.829124 68.782097,99.497620 89.099304,85.013306 
M101.966492,86.830811 
	C101.885895,85.392845 101.805305,83.954872 101.722137,82.470879 
	C79.118805,87.468468 62.120594,115.034225 64.955994,141.669617 
	C67.859016,168.940323 92.069984,190.705429 119.786415,190.960876 
	C144.055222,191.184540 170.355942,172.863434 172.738068,153.802734 
	C171.249512,153.719238 169.764130,153.735641 168.308105,153.536957 
	C162.081436,152.687363 158.086456,154.643753 154.019058,160.204910 
	C143.646530,174.386749 128.827469,179.715469 111.664551,175.864517 
	C94.325600,171.974091 83.175629,160.717102 79.531807,143.334152 
	C75.979919,126.389801 81.249275,111.721214 95.297173,101.433830 
	C100.556625,97.582283 102.984016,93.891678 101.966492,86.830811 
z"/>
<path fill="#42C57B" opacity="1.000000" stroke="none" 
	d="
M134.549957,101.628120 
	C120.616768,96.831581 114.576515,87.023720 118.188271,75.357124 
	C120.523079,67.815285 126.189171,63.612549 133.378830,61.449562 
	C137.594162,60.181393 140.936157,58.739052 140.081451,53.459648 
	C140.031067,53.148407 140.067688,52.722015 140.246414,52.489624 
	C144.103897,47.473812 149.469040,50.753654 154.105042,50.255035 
	C155.244431,50.132488 157.765747,52.752220 157.777069,54.126690 
	C157.812241,58.395054 159.471252,60.209145 163.652130,60.283382 
	C165.455978,60.315411 167.244141,60.969776 169.048462,61.290657 
	C172.564087,61.915874 173.949738,63.928616 174.063904,67.547546 
	C174.480484,80.754967 174.611954,80.620140 162.326096,77.399307 
	C155.412415,75.586838 148.349197,73.645523 141.220993,76.307297 
	C139.527710,76.939575 138.216690,78.595505 136.729858,79.780594 
	C138.153549,81.224503 139.342438,83.449837 141.046158,83.961754 
	C145.648315,85.344521 150.526413,85.780632 155.188599,86.999443 
	C160.324158,88.341988 165.664902,89.496597 170.347427,91.860046 
	C182.901596,98.196632 185.086716,115.256454 174.603745,124.698608 
	C171.477264,127.514648 167.444275,129.556625 163.504333,131.162567 
	C160.432190,132.414780 158.699646,133.796265 158.988800,137.232834 
	C159.272842,140.608505 157.603561,142.150864 154.229187,142.013596 
	C152.232758,141.932388 150.217789,141.868484 148.232422,142.041153 
	C143.533249,142.449844 140.438934,141.448563 140.748642,135.674316 
	C140.811996,134.493362 138.639465,132.556381 137.131973,132.044357 
	C132.259277,130.389328 127.049950,129.639511 122.320297,127.691299 
	C120.417236,126.907387 118.502060,124.047188 118.204559,121.907776 
	C117.577362,117.397537 118.013794,112.739388 118.013794,107.107201 
	C122.137451,108.714455 125.071411,110.275589 128.199005,110.995461 
	C136.242569,112.846817 144.323517,114.687241 152.490158,115.780045 
	C155.899628,116.236275 160.876236,115.639877 161.416229,111.295532 
	C162.022034,106.421822 156.966583,106.249596 153.550644,105.464691 
	C147.385391,104.048065 141.144119,102.962280 134.549957,101.628120 
M131.638184,64.910728 
	C124.117363,68.273117 119.516808,73.620781 120.065453,82.306862 
	C120.615738,91.019081 126.036217,95.711342 133.785751,98.131783 
	C137.740585,99.366997 141.856934,100.089073 145.906601,101.015465 
	C150.440994,102.052734 155.203201,102.528801 159.432877,104.289948 
	C161.733170,105.247734 164.551254,108.369255 164.546371,110.508949 
	C164.541382,112.699989 161.756592,115.514496 159.483261,116.893127 
	C157.217651,118.267090 153.934448,119.041840 151.345871,118.605431 
	C143.047363,117.206383 134.852005,115.176140 126.645256,113.267342 
	C124.821754,112.843224 123.114517,111.919228 120.771561,110.995979 
	C120.771561,114.133965 121.015846,116.478989 120.719444,118.753555 
	C120.146385,123.151031 121.788475,125.599075 126.194550,126.505539 
	C132.177704,127.736465 138.105499,129.236389 144.216614,130.658066 
	C144.216614,133.406418 144.216614,136.287399 144.216614,139.158539 
	C148.511734,139.158539 152.412933,139.158539 156.783325,139.158539 
	C156.528839,135.988449 156.309311,133.254089 156.109695,130.767548 
	C160.577164,129.079865 164.967148,127.941139 168.838715,125.844925 
	C175.763275,122.095680 178.854813,115.903877 178.392502,108.002243 
	C177.947922,100.403763 173.489059,95.807037 166.821854,93.199989 
	C163.127258,91.755318 159.203888,90.850182 155.332092,89.915421 
	C150.161682,88.667137 144.894623,87.800858 139.759598,86.431099 
	C136.660950,85.604530 133.615265,84.112114 133.689957,80.150124 
	C133.767258,76.050049 136.844437,73.989624 140.179764,73.709587 
	C146.239059,73.200821 152.413376,73.183891 158.464432,73.756676 
	C162.655029,74.153351 166.719376,75.883682 171.561966,77.216820 
	C171.561966,74.274879 171.337692,71.797569 171.613449,69.377235 
	C172.049530,65.549606 170.371979,63.945454 166.725906,63.522449 
	C162.822357,63.069572 158.958252,62.276859 155.047180,61.627529 
	C155.047180,58.563183 155.047180,55.828732 155.047180,52.903030 
	C150.814590,52.903030 146.926254,52.903030 142.617157,52.903030 
	C142.769531,56.019302 142.903748,58.764389 143.039139,61.533382 
	C139.318054,62.604256 135.834351,63.606812 131.638184,64.910728 
z"/>
<path fill="#FAFEFC" opacity="1.000000" stroke="none" 
	d="
M101.966568,87.279106 
	C102.984016,93.891678 100.556625,97.582283 95.297173,101.433830 
	C81.249275,111.721214 75.979919,126.389801 79.531807,143.334152 
	C83.175629,160.717102 94.325600,171.974091 111.664551,175.864517 
	C128.827469,179.715469 143.646530,174.386749 154.019058,160.204910 
	C158.086456,154.643753 162.081436,152.687363 168.308105,153.536957 
	C169.764130,153.735641 171.249512,153.719238 172.738068,153.802734 
	C170.355942,172.863434 144.055222,191.184540 119.786415,190.960876 
	C92.069984,190.705429 67.859016,168.940323 64.955994,141.669617 
	C62.120594,115.034225 79.118805,87.468468 101.722137,82.470879 
	C101.805305,83.954872 101.885895,85.392845 101.966568,87.279106 
z"/>
<path fill="#F9FDFB" opacity="1.000000" stroke="none" 
	d="
M131.994415,64.760048 
	C135.834351,63.606812 139.318054,62.604256 143.039139,61.533382 
	C142.903748,58.764389 142.769531,56.019302 142.617157,52.903030 
	C146.926254,52.903030 150.814590,52.903030 155.047180,52.903030 
	C155.047180,55.828732 155.047180,58.563183 155.047180,61.627529 
	C158.958252,62.276859 162.822357,63.069572 166.725906,63.522449 
	C170.371979,63.945454 172.049530,65.549606 171.613449,69.377235 
	C171.337692,71.797569 171.561966,74.274879 171.561966,77.216820 
	C166.719376,75.883682 162.655029,74.153351 158.464432,73.756676 
	C152.413376,73.183891 146.239059,73.200821 140.179764,73.709587 
	C136.844437,73.989624 133.767258,76.050049 133.689957,80.150124 
	C133.615265,84.112114 136.660950,85.604530 139.759598,86.431099 
	C144.894623,87.800858 150.161682,88.667137 155.332092,89.915421 
	C159.203888,90.850182 163.127258,91.755318 166.821854,93.199989 
	C173.489059,95.807037 177.947922,100.403763 178.392502,108.002243 
	C178.854813,115.903877 175.763275,122.095680 168.838715,125.844925 
	C164.967148,127.941139 160.577164,129.079865 156.109695,130.767548 
	C156.309311,133.254089 156.528839,135.988449 156.783325,139.158539 
	C152.412933,139.158539 148.511734,139.158539 144.216614,139.158539 
	C144.216614,136.287399 144.216614,133.406418 144.216614,130.658066 
	C138.105499,129.236389 132.177704,127.736465 126.194550,126.505539 
	C121.788475,125.599075 120.146385,123.151031 120.719444,118.753555 
	C121.015846,116.478989 120.771561,114.133965 120.771561,110.995979 
	C123.114517,111.919228 124.821754,112.843224 126.645256,113.267342 
	C134.852005,115.176140 143.047363,117.206383 151.345871,118.605431 
	C153.934448,119.041840 157.217651,118.267090 159.483261,116.893127 
	C161.756592,115.514496 164.541382,112.699989 164.546371,110.508949 
	C164.551254,108.369255 161.733170,105.247734 159.432877,104.289948 
	C155.203201,102.528801 150.440994,102.052734 145.906601,101.015465 
	C141.856934,100.089073 137.740585,99.366997 133.785751,98.131783 
	C126.036217,95.711342 120.615738,91.019081 120.065453,82.306862 
	C119.516808,73.620781 124.117363,68.273117 131.994415,64.760048 
z"/>
</svg>