<svg width="72" height="72" viewBox="0 0 72 72" fill="none" xmlns="http://www.w3.org/2000/svg">
<path opacity="0.2" d="M15.3171 56.6829C12.7285 54.0942 14.4454 48.6595 13.1278 45.4751C11.762 42.1739 6.75 39.517 6.75 35.9999C6.75 32.4828 11.762 29.826 13.1279 26.5249C14.4455 23.3404 12.7285 17.9058 15.3171 15.3171C17.9057 12.7285 23.3405 14.4454 26.5249 13.1278C29.8261 11.762 32.483 6.75 36.0001 6.75C39.5172 6.75 42.174 11.762 45.4751 13.1279C48.6595 14.4455 54.0942 12.7285 56.6829 15.3171C59.2715 17.9057 57.5546 23.3405 58.8722 26.5249C60.238 29.8261 65.25 32.483 65.25 36.0001C65.25 39.5172 60.238 42.174 58.8721 45.4751C57.5546 48.6595 59.2715 54.0942 56.6829 56.6829C54.0943 59.2715 48.6595 57.5546 45.4751 58.8722C42.1739 60.238 39.517 65.25 35.9999 65.25C32.4828 65.25 29.826 60.238 26.5249 58.8721C23.3404 57.5546 17.9058 59.2715 15.3171 56.6829Z" fill="black"/>
<path d="M15.3171 56.6829C12.7285 54.0942 14.4454 48.6595 13.1278 45.4751C11.762 42.1739 6.75 39.517 6.75 35.9999C6.75 32.4828 11.762 29.826 13.1279 26.5249C14.4455 23.3404 12.7285 17.9058 15.3171 15.3171C17.9057 12.7285 23.3405 14.4454 26.5249 13.1278C29.8261 11.762 32.483 6.75 36.0001 6.75C39.5172 6.75 42.174 11.762 45.4751 13.1279C48.6596 14.4455 54.0942 12.7285 56.6829 15.3171C59.2715 17.9057 57.5546 23.3405 58.8722 26.5249C60.238 29.8261 65.25 32.483 65.25 36.0001C65.25 39.5172 60.238 42.174 58.8721 45.4751C57.5545 48.6596 59.2715 54.0942 56.6829 56.6829C54.0943 59.2715 48.6595 57.5546 45.4751 58.8722C42.1739 60.238 39.517 65.25 35.9999 65.25C32.4828 65.25 29.826 60.238 26.5249 58.8721C23.3404 57.5545 17.9058 59.2715 15.3171 56.6829Z" stroke="black" stroke-width="4.5" stroke-linecap="round" stroke-linejoin="round"/>
<path d="M48.375 29.25L31.8749 45L23.625 37.125" stroke="black" stroke-width="4.5" stroke-linecap="round" stroke-linejoin="round"/>
</svg>
