<svg width="25" height="24" viewBox="0 0 25 24" fill="none" xmlns="http://www.w3.org/2000/svg">
<path d="M12.8727 16.6231C13.1662 16.9146 13.6416 16.9129 13.9347 16.6194L18.0005 12.5267C18.1395 12.3852 18.2183 12.1944 18.2176 11.9949C18.2169 11.7953 18.1367 11.6066 17.9968 11.4661L13.9013 7.40331C13.6092 7.11479 13.1352 7.11495 12.8423 7.40699C12.5508 7.69755 12.5495 8.17006 12.8399 8.46451L15.6051 11.2555L2.00014 11.3028C1.58616 11.3042 1.25131 11.6414 1.25275 12.0554C1.25419 12.4694 1.59138 12.8042 2.00535 12.8028L15.6583 12.7553L12.869 15.5627C12.5775 15.8562 12.5792 16.3316 12.8727 16.6231L12.8727 16.6231Z" fill="#657792" stroke="#172C50" stroke-width="0.2"/>
<path d="M4.6639 9.04882C4.54081 9.44073 4.75821 9.86296 5.1532 9.99064C5.54817 10.1152 5.96889 9.89476 6.09353 9.49683C7.18259 6.05663 10.3411 3.73703 13.9499 3.72449C18.5113 3.70864 22.2368 7.40531 22.2526 11.9653C22.2685 16.5267 18.569 20.2505 14.0074 20.2664C10.3984 20.2789 7.22402 17.9814 6.11109 14.5488C5.98222 14.1563 5.55999 13.9403 5.16589 14.0675C4.77329 14.1949 4.55575 14.6172 4.68463 15.0127C6.00225 19.0672 9.74959 21.7812 14.0128 21.7664C19.4023 21.7476 23.7715 17.3478 23.7527 11.96C23.734 6.57368 19.3342 2.20575 13.9448 2.22448C9.68026 2.2393 5.95198 4.98368 4.6639 9.04878L4.6639 9.04882Z" fill="#657792" stroke="#172C50" stroke-width="0.2"/>
</svg>
